<svg xmlns="http://www.w3.org/2000/svg" version="1.1" xmlns:xlink="http://www.w3.org/1999/xlink" xmlns:svgjs="http://svgjs.dev/svgjs" width="1920" height="1080" preserveAspectRatio="none" viewBox="0 0 1920 1080"><g mask="url(&quot;#SvgjsMask1016&quot;)" fill="none"><rect width="1920" height="1080" x="0" y="0" fill="rgba(255, 255, 255, 1)"></rect><path d="M724.68-3.27a66.64 66.64 0 1 0-119.65 58.7z" fill="rgba(1, 157, 152, 1)"></path><path d="M448.4 1027.96L541.19 1027.96L541.19 1112.64L448.4 1112.64z" stroke="rgba(1, 157, 152, 1)"></path><path d="M1301.27 1073.59L1395.07 1073.59L1395.07 1172.99L1301.27 1172.99z" fill="rgba(1, 157, 152, 1)"></path><path d="M1393.21 936.49 a66.54 66.54 0 1 0 133.08 0 a66.54 66.54 0 1 0 -133.08 0z" stroke="rgba(240, 144, 0, 1)"></path><path d="M246.76 564.71 a44.61 44.61 0 1 0 89.22 0 a44.61 44.61 0 1 0 -89.22 0z" fill="rgba(1, 157, 152, 1)"></path><path d="M354.94 866.39 a20.83 20.83 0 1 0 41.66 0 a20.83 20.83 0 1 0 -41.66 0z" stroke="rgba(1, 157, 152, 1)"></path><path d="M1889.41 222.31L1905.69 222.31L1905.69 238.59L1889.41 238.59z" fill="rgba(1, 157, 152, 1)"></path><path d="M1033.47 751.43L1047.27 751.43L1047.27 765.23L1033.47 765.23z" fill="rgba(240, 144, 0, 1)"></path><path d="M308.43 365.68L350.45 365.68L350.45 473.19L308.43 473.19z" stroke="rgba(240, 144, 0, 1)"></path><path d="M779.56 853.53 a39.03 39.03 0 1 0 78.06 0 a39.03 39.03 0 1 0 -78.06 0z" stroke="rgba(240, 144, 0, 1)"></path><path d="M1578.2 787.07 a45.92 45.92 0 1 0 91.84 0 a45.92 45.92 0 1 0 -91.84 0z" fill="rgba(1, 157, 152, 1)"></path><path d="M685.28 731.35L771.6 731.35L771.6 792.15L685.28 792.15z" stroke="rgba(1, 157, 152, 1)"></path><path d="M193.65 498.93L202.8 498.93L202.8 508.08L193.65 508.08z" stroke="rgba(240, 144, 0, 1)"></path><path d="M280.7 508.09L289.72 508.09L289.72 596.56L280.7 596.56z" stroke="rgba(1, 157, 152, 1)"></path><path d="M926.83 1078.63L1014.49 1078.63L1014.49 1129.44L926.83 1129.44z" fill="rgba(1, 157, 152, 1)"></path><path d="M1773.13 92.37L1785.24 92.37L1785.24 104.48L1773.13 104.48z" fill="rgba(1, 157, 152, 1)"></path><path d="M441.76 753.17L508.29 753.17L508.29 819.7L441.76 819.7z" fill="rgba(1, 157, 152, 1)"></path><path d="M991.4 230.82a95.96 95.96 0 1 0 9.3-191.69z" stroke="rgba(240, 144, 0, 1)"></path><path d="M1651.01 901.29L1738.36 901.29L1738.36 988.64L1651.01 988.64z" stroke="rgba(1, 157, 152, 1)"></path><path d="M1143.15 386.76L1183.5 386.76L1183.5 486.67L1143.15 486.67z" stroke="rgba(240, 144, 0, 1)"></path><path d="M893.28 645.25L895.83 645.25L895.83 647.8L893.28 647.8z" fill="rgba(240, 144, 0, 1)"></path><path d="M1296.99 415.47a11.41 11.41 0 1 0 3.31 22.57z" stroke="rgba(240, 144, 0, 1)"></path><path d="M952.59 990.12L974.32 990.12L974.32 1076.56L952.59 1076.56z" stroke="rgba(1, 157, 152, 1)"></path></g><defs><mask id="SvgjsMask1016"><rect width="1920" height="1080" fill="#ffffff"></rect></mask></defs></svg>