<svg xmlns="http://www.w3.org/2000/svg" version="1.1" xmlns:xlink="http://www.w3.org/1999/xlink" xmlns:svgjs="http://svgjs.dev/svgjs" width="1440" height="560" preserveAspectRatio="none" viewBox="0 0 1440 560"><g mask="url(&quot;#SvgjsMask1169&quot;)" fill="none"><rect width="1440" height="560" x="0" y="0" fill="url(&quot;#SvgjsLinearGradient1170&quot;)"></rect><path d="M-50.28 395.56L-50.28 395.56" stroke="rgba(135, 142, 157, 1)" stroke-width="1.5"></path><path d="M-50.28 395.56L-70.8 501.21" stroke="rgba(135, 142, 157, 1)" stroke-width="1.5"></path><path d="M-50.28 395.56L94.05 354.63" stroke="rgba(135, 142, 157, 1)" stroke-width="1.5"></path><path d="M-70.8 501.21L-70.8 501.21" stroke="rgba(135, 142, 157, 1)" stroke-width="1.5"></path><path d="M-70.8 501.21L-100.34 641.23" stroke="rgba(135, 142, 157, 1)" stroke-width="1.5"></path><path d="M-100.34 641.23L-100.34 641.23" stroke="rgba(135, 142, 157, 1)" stroke-width="1.5"></path><path d="M-100.34 641.23L82.51 556.5" stroke="rgba(135, 142, 157, 1)" stroke-width="1.5"></path><path d="M-100.34 641.23L94.11 698.34" stroke="rgba(135, 142, 157, 1)" stroke-width="1.5"></path><path d="M-100.34 641.23L-50.28 395.56" stroke="rgba(135, 142, 157, 1)" stroke-width="1.5"></path><path d="M-100.34 641.23L206.97 536.54" stroke="rgba(135, 142, 157, 1)" stroke-width="1.5"></path><path d="M94.05 354.63L94.05 354.63" stroke="rgba(135, 142, 157, 1)" stroke-width="1.5"></path><path d="M94.05 354.63L214.98 347.38" stroke="rgba(135, 142, 157, 1)" stroke-width="1.5"></path><path d="M94.05 354.63L82.51 556.5" stroke="rgba(135, 142, 157, 1)" stroke-width="1.5"></path><path d="M82.51 556.5L82.51 556.5" stroke="rgba(135, 142, 157, 1)" stroke-width="1.5"></path><path d="M82.51 556.5L206.97 536.54" stroke="rgba(135, 142, 157, 1)" stroke-width="1.5"></path><path d="M94.11 698.34L94.11 698.34" stroke="rgba(135, 142, 157, 1)" stroke-width="1.5"></path><path d="M94.11 698.34L82.51 556.5" stroke="rgba(135, 142, 157, 1)" stroke-width="1.5"></path><path d="M94.11 698.34L249.26 703.78" stroke="rgba(135, 142, 157, 1)" stroke-width="1.5"></path><path d="M94.11 698.34L206.97 536.54" stroke="rgba(135, 142, 157, 1)" stroke-width="1.5"></path><path d="M214.98 347.38L214.98 347.38" stroke="rgba(135, 142, 157, 1)" stroke-width="1.5"></path><path d="M214.98 347.38L371.19 409.94" stroke="rgba(135, 142, 157, 1)" stroke-width="1.5"></path><path d="M214.98 347.38L206.97 536.54" stroke="rgba(135, 142, 157, 1)" stroke-width="1.5"></path><path d="M206.97 536.54L206.97 536.54" stroke="rgba(135, 142, 157, 1)" stroke-width="1.5"></path><path d="M206.97 536.54L342.08 512.39" stroke="rgba(135, 142, 157, 1)" stroke-width="1.5"></path><path d="M206.97 536.54L249.26 703.78" stroke="rgba(135, 142, 157, 1)" stroke-width="1.5"></path><path d="M249.26 703.78L249.26 703.78" stroke="rgba(135, 142, 157, 1)" stroke-width="1.5"></path><path d="M249.26 703.78L338.85 650.2" stroke="rgba(135, 142, 157, 1)" stroke-width="1.5"></path><path d="M371.19 409.94L371.19 409.94" stroke="rgba(135, 142, 157, 1)" stroke-width="1.5"></path><path d="M371.19 409.94L342.08 512.39" stroke="rgba(135, 142, 157, 1)" stroke-width="1.5"></path><path d="M342.08 512.39L342.08 512.39" stroke="rgba(135, 142, 157, 1)" stroke-width="1.5"></path><path d="M342.08 512.39L338.85 650.2" stroke="rgba(135, 142, 157, 1)" stroke-width="1.5"></path><path d="M342.08 512.39L518.76 533.93" stroke="rgba(135, 142, 157, 1)" stroke-width="1.5"></path><path d="M342.08 512.39L214.98 347.38" stroke="rgba(135, 142, 157, 1)" stroke-width="1.5"></path><path d="M342.08 512.39L249.26 703.78" stroke="rgba(135, 142, 157, 1)" stroke-width="1.5"></path><path d="M338.85 650.2L338.85 650.2" stroke="rgba(135, 142, 157, 1)" stroke-width="1.5"></path><path d="M338.85 650.2L206.97 536.54" stroke="rgba(135, 142, 157, 1)" stroke-width="1.5"></path><path d="M338.85 650.2L508.31 710.68" stroke="rgba(135, 142, 157, 1)" stroke-width="1.5"></path><path d="M338.85 650.2L518.76 533.93" stroke="rgba(135, 142, 157, 1)" stroke-width="1.5"></path><path d="M338.85 650.2L371.19 409.94" stroke="rgba(135, 142, 157, 1)" stroke-width="1.5"></path><path d="M514.5 376.06L514.5 376.06" stroke="rgba(135, 142, 157, 1)" stroke-width="1.5"></path><path d="M514.5 376.06L371.19 409.94" stroke="rgba(135, 142, 157, 1)" stroke-width="1.5"></path><path d="M518.76 533.93L518.76 533.93" stroke="rgba(135, 142, 157, 1)" stroke-width="1.5"></path><path d="M518.76 533.93L514.5 376.06" stroke="rgba(135, 142, 157, 1)" stroke-width="1.5"></path><path d="M518.76 533.93L508.31 710.68" stroke="rgba(135, 142, 157, 1)" stroke-width="1.5"></path><path d="M518.76 533.93L696.76 533.68" stroke="rgba(135, 142, 157, 1)" stroke-width="1.5"></path><path d="M518.76 533.93L371.19 409.94" stroke="rgba(135, 142, 157, 1)" stroke-width="1.5"></path><path d="M508.31 710.68L508.31 710.68" stroke="rgba(135, 142, 157, 1)" stroke-width="1.5"></path><path d="M508.31 710.68L701.17 666.62" stroke="rgba(135, 142, 157, 1)" stroke-width="1.5"></path><path d="M508.31 710.68L696.76 533.68" stroke="rgba(135, 142, 157, 1)" stroke-width="1.5"></path><path d="M508.31 710.68L342.08 512.39" stroke="rgba(135, 142, 157, 1)" stroke-width="1.5"></path><path d="M705.05 362.14L705.05 362.14" stroke="rgba(135, 142, 157, 1)" stroke-width="1.5"></path><path d="M705.05 362.14L804.51 354.81" stroke="rgba(135, 142, 157, 1)" stroke-width="1.5"></path><path d="M696.76 533.68L696.76 533.68" stroke="rgba(135, 142, 157, 1)" stroke-width="1.5"></path><path d="M696.76 533.68L701.17 666.62" stroke="rgba(135, 142, 157, 1)" stroke-width="1.5"></path><path d="M696.76 533.68L861.74 547.22" stroke="rgba(135, 142, 157, 1)" stroke-width="1.5"></path><path d="M701.17 666.62L701.17 666.62" stroke="rgba(135, 142, 157, 1)" stroke-width="1.5"></path><path d="M701.17 666.62L799.6 682.71" stroke="rgba(135, 142, 157, 1)" stroke-width="1.5"></path><path d="M701.17 666.62L861.74 547.22" stroke="rgba(135, 142, 157, 1)" stroke-width="1.5"></path><path d="M701.17 666.62L518.76 533.93" stroke="rgba(135, 142, 157, 1)" stroke-width="1.5"></path><path d="M801.17 196.76L801.17 196.76" stroke="rgba(135, 142, 157, 1)" stroke-width="1.5"></path><path d="M801.17 196.76L948.13 226.3" stroke="rgba(135, 142, 157, 1)" stroke-width="1.5"></path><path d="M801.17 196.76L804.51 354.81" stroke="rgba(135, 142, 157, 1)" stroke-width="1.5"></path><path d="M801.17 196.76L963.74 108.08" stroke="rgba(135, 142, 157, 1)" stroke-width="1.5"></path><path d="M801.17 196.76L705.05 362.14" stroke="rgba(135, 142, 157, 1)" stroke-width="1.5"></path><path d="M801.17 196.76L941.37 369.41" stroke="rgba(135, 142, 157, 1)" stroke-width="1.5"></path><path d="M801.17 196.76L1137.5 222.72" stroke="rgba(135, 142, 157, 1)" stroke-width="1.5"></path><path d="M804.51 354.81L804.51 354.81" stroke="rgba(135, 142, 157, 1)" stroke-width="1.5"></path><path d="M804.51 354.81L941.37 369.41" stroke="rgba(135, 142, 157, 1)" stroke-width="1.5"></path><path d="M804.51 354.81L948.13 226.3" stroke="rgba(135, 142, 157, 1)" stroke-width="1.5"></path><path d="M861.74 547.22L861.74 547.22" stroke="rgba(135, 142, 157, 1)" stroke-width="1.5"></path><path d="M861.74 547.22L964.36 528.94" stroke="rgba(135, 142, 157, 1)" stroke-width="1.5"></path><path d="M861.74 547.22L799.6 682.71" stroke="rgba(135, 142, 157, 1)" stroke-width="1.5"></path><path d="M799.6 682.71L799.6 682.71" stroke="rgba(135, 142, 157, 1)" stroke-width="1.5"></path><path d="M799.6 682.71L944.81 680.82" stroke="rgba(135, 142, 157, 1)" stroke-width="1.5"></path><path d="M799.6 682.71L696.76 533.68" stroke="rgba(135, 142, 157, 1)" stroke-width="1.5"></path><path d="M963.74 108.08L963.74 108.08" stroke="rgba(135, 142, 157, 1)" stroke-width="1.5"></path><path d="M963.74 108.08L948.13 226.3" stroke="rgba(135, 142, 157, 1)" stroke-width="1.5"></path><path d="M963.74 108.08L1144.69 108.96" stroke="rgba(135, 142, 157, 1)" stroke-width="1.5"></path><path d="M963.74 108.08L1137.5 222.72" stroke="rgba(135, 142, 157, 1)" stroke-width="1.5"></path><path d="M948.13 226.3L948.13 226.3" stroke="rgba(135, 142, 157, 1)" stroke-width="1.5"></path><path d="M948.13 226.3L941.37 369.41" stroke="rgba(135, 142, 157, 1)" stroke-width="1.5"></path><path d="M948.13 226.3L1137.5 222.72" stroke="rgba(135, 142, 157, 1)" stroke-width="1.5"></path><path d="M948.13 226.3L1137 346.09" stroke="rgba(135, 142, 157, 1)" stroke-width="1.5"></path><path d="M941.37 369.41L941.37 369.41" stroke="rgba(135, 142, 157, 1)" stroke-width="1.5"></path><path d="M941.37 369.41L964.36 528.94" stroke="rgba(135, 142, 157, 1)" stroke-width="1.5"></path><path d="M941.37 369.41L861.74 547.22" stroke="rgba(135, 142, 157, 1)" stroke-width="1.5"></path><path d="M941.37 369.41L1137 346.09" stroke="rgba(135, 142, 157, 1)" stroke-width="1.5"></path><path d="M964.36 528.94L964.36 528.94" stroke="rgba(135, 142, 157, 1)" stroke-width="1.5"></path><path d="M964.36 528.94L944.81 680.82" stroke="rgba(135, 142, 157, 1)" stroke-width="1.5"></path><path d="M964.36 528.94L1151.54 500.74" stroke="rgba(135, 142, 157, 1)" stroke-width="1.5"></path><path d="M964.36 528.94L1151.84 644.68" stroke="rgba(135, 142, 157, 1)" stroke-width="1.5"></path><path d="M944.81 680.82L944.81 680.82" stroke="rgba(135, 142, 157, 1)" stroke-width="1.5"></path><path d="M944.81 680.82L861.74 547.22" stroke="rgba(135, 142, 157, 1)" stroke-width="1.5"></path><path d="M944.81 680.82L1151.84 644.68" stroke="rgba(135, 142, 157, 1)" stroke-width="1.5"></path><path d="M944.81 680.82L701.17 666.62" stroke="rgba(135, 142, 157, 1)" stroke-width="1.5"></path><path d="M944.81 680.82L1151.54 500.74" stroke="rgba(135, 142, 157, 1)" stroke-width="1.5"></path><path d="M1146.38 -65.65L1146.38 -65.65" stroke="rgba(135, 142, 157, 1)" stroke-width="1.5"></path><path d="M1146.38 -65.65L1237.95 -81.94" stroke="rgba(135, 142, 157, 1)" stroke-width="1.5"></path><path d="M1146.38 -65.65L1144.69 108.96" stroke="rgba(135, 142, 157, 1)" stroke-width="1.5"></path><path d="M1146.38 -65.65L1308.53 72.8" stroke="rgba(135, 142, 157, 1)" stroke-width="1.5"></path><path d="M1144.69 108.96L1144.69 108.96" stroke="rgba(135, 142, 157, 1)" stroke-width="1.5"></path><path d="M1144.69 108.96L1137.5 222.72" stroke="rgba(135, 142, 157, 1)" stroke-width="1.5"></path><path d="M1144.69 108.96L1244.39 232.31" stroke="rgba(135, 142, 157, 1)" stroke-width="1.5"></path><path d="M1144.69 108.96L1308.53 72.8" stroke="rgba(135, 142, 157, 1)" stroke-width="1.5"></path><path d="M1137.5 222.72L1137.5 222.72" stroke="rgba(135, 142, 157, 1)" stroke-width="1.5"></path><path d="M1137.5 222.72L1244.39 232.31" stroke="rgba(135, 142, 157, 1)" stroke-width="1.5"></path><path d="M1137.5 222.72L1137 346.09" stroke="rgba(135, 142, 157, 1)" stroke-width="1.5"></path><path d="M1137.5 222.72L1238.27 365.12" stroke="rgba(135, 142, 157, 1)" stroke-width="1.5"></path><path d="M1137 346.09L1137 346.09" stroke="rgba(135, 142, 157, 1)" stroke-width="1.5"></path><path d="M1137 346.09L1238.27 365.12" stroke="rgba(135, 142, 157, 1)" stroke-width="1.5"></path><path d="M1137 346.09L1151.54 500.74" stroke="rgba(135, 142, 157, 1)" stroke-width="1.5"></path><path d="M1137 346.09L1244.39 232.31" stroke="rgba(135, 142, 157, 1)" stroke-width="1.5"></path><path d="M1151.54 500.74L1151.54 500.74" stroke="rgba(135, 142, 157, 1)" stroke-width="1.5"></path><path d="M1151.54 500.74L1151.84 644.68" stroke="rgba(135, 142, 157, 1)" stroke-width="1.5"></path><path d="M1151.54 500.74L1298.44 522.46" stroke="rgba(135, 142, 157, 1)" stroke-width="1.5"></path><path d="M1151.54 500.74L1238.27 365.12" stroke="rgba(135, 142, 157, 1)" stroke-width="1.5"></path><path d="M1151.54 500.74L1257.94 666.99" stroke="rgba(135, 142, 157, 1)" stroke-width="1.5"></path><path d="M1151.84 644.68L1151.84 644.68" stroke="rgba(135, 142, 157, 1)" stroke-width="1.5"></path><path d="M1151.84 644.68L1257.94 666.99" stroke="rgba(135, 142, 157, 1)" stroke-width="1.5"></path><path d="M1151.84 644.68L1298.44 522.46" stroke="rgba(135, 142, 157, 1)" stroke-width="1.5"></path><path d="M1237.95 -81.94L1237.95 -81.94" stroke="rgba(135, 142, 157, 1)" stroke-width="1.5"></path><path d="M1237.95 -81.94L1308.53 72.8" stroke="rgba(135, 142, 157, 1)" stroke-width="1.5"></path><path d="M1237.95 -81.94L1144.69 108.96" stroke="rgba(135, 142, 157, 1)" stroke-width="1.5"></path><path d="M1308.53 72.8L1308.53 72.8" stroke="rgba(135, 142, 157, 1)" stroke-width="1.5"></path><path d="M1308.53 72.8L1399.2 87.52" stroke="rgba(135, 142, 157, 1)" stroke-width="1.5"></path><path d="M1308.53 72.8L1244.39 232.31" stroke="rgba(135, 142, 157, 1)" stroke-width="1.5"></path><path d="M1308.53 72.8L1458.83 -55.7" stroke="rgba(135, 142, 157, 1)" stroke-width="1.5"></path><path d="M1244.39 232.31L1244.39 232.31" stroke="rgba(135, 142, 157, 1)" stroke-width="1.5"></path><path d="M1244.39 232.31L1238.27 365.12" stroke="rgba(135, 142, 157, 1)" stroke-width="1.5"></path><path d="M1238.27 365.12L1238.27 365.12" stroke="rgba(135, 142, 157, 1)" stroke-width="1.5"></path><path d="M1238.27 365.12L1393.72 361.28" stroke="rgba(135, 142, 157, 1)" stroke-width="1.5"></path><path d="M1238.27 365.12L1298.44 522.46" stroke="rgba(135, 142, 157, 1)" stroke-width="1.5"></path><path d="M1298.44 522.46L1298.44 522.46" stroke="rgba(135, 142, 157, 1)" stroke-width="1.5"></path><path d="M1298.44 522.46L1428.27 522.2" stroke="rgba(135, 142, 157, 1)" stroke-width="1.5"></path><path d="M1298.44 522.46L1257.94 666.99" stroke="rgba(135, 142, 157, 1)" stroke-width="1.5"></path><path d="M1298.44 522.46L1393.72 361.28" stroke="rgba(135, 142, 157, 1)" stroke-width="1.5"></path><path d="M1257.94 666.99L1257.94 666.99" stroke="rgba(135, 142, 157, 1)" stroke-width="1.5"></path><path d="M1257.94 666.99L1425.86 667.89" stroke="rgba(135, 142, 157, 1)" stroke-width="1.5"></path><path d="M1257.94 666.99L1428.27 522.2" stroke="rgba(135, 142, 157, 1)" stroke-width="1.5"></path><path d="M1257.94 666.99L1238.27 365.12" stroke="rgba(135, 142, 157, 1)" stroke-width="1.5"></path><path d="M1458.83 -55.7L1458.83 -55.7" stroke="rgba(135, 142, 157, 1)" stroke-width="1.5"></path><path d="M1458.83 -55.7L1554.48 -78.42" stroke="rgba(135, 142, 157, 1)" stroke-width="1.5"></path><path d="M1458.83 -55.7L1399.2 87.52" stroke="rgba(135, 142, 157, 1)" stroke-width="1.5"></path><path d="M1458.83 -55.7L1574.75 58.71" stroke="rgba(135, 142, 157, 1)" stroke-width="1.5"></path><path d="M1458.83 -55.7L1237.95 -81.94" stroke="rgba(135, 142, 157, 1)" stroke-width="1.5"></path><path d="M1458.83 -55.7L1539.91 238.66" stroke="rgba(135, 142, 157, 1)" stroke-width="1.5"></path><path d="M1399.2 87.52L1399.2 87.52" stroke="rgba(135, 142, 157, 1)" stroke-width="1.5"></path><path d="M1399.2 87.52L1443.33 256.55" stroke="rgba(135, 142, 157, 1)" stroke-width="1.5"></path><path d="M1399.2 87.52L1574.75 58.71" stroke="rgba(135, 142, 157, 1)" stroke-width="1.5"></path><path d="M1399.2 87.52L1539.91 238.66" stroke="rgba(135, 142, 157, 1)" stroke-width="1.5"></path><path d="M1399.2 87.52L1244.39 232.31" stroke="rgba(135, 142, 157, 1)" stroke-width="1.5"></path><path d="M1443.33 256.55L1443.33 256.55" stroke="rgba(135, 142, 157, 1)" stroke-width="1.5"></path><path d="M1443.33 256.55L1539.91 238.66" stroke="rgba(135, 142, 157, 1)" stroke-width="1.5"></path><path d="M1443.33 256.55L1393.72 361.28" stroke="rgba(135, 142, 157, 1)" stroke-width="1.5"></path><path d="M1443.33 256.55L1583.93 359.3" stroke="rgba(135, 142, 157, 1)" stroke-width="1.5"></path><path d="M1443.33 256.55L1244.39 232.31" stroke="rgba(135, 142, 157, 1)" stroke-width="1.5"></path><path d="M1393.72 361.28L1393.72 361.28" stroke="rgba(135, 142, 157, 1)" stroke-width="1.5"></path><path d="M1393.72 361.28L1428.27 522.2" stroke="rgba(135, 142, 157, 1)" stroke-width="1.5"></path><path d="M1428.27 522.2L1428.27 522.2" stroke="rgba(135, 142, 157, 1)" stroke-width="1.5"></path><path d="M1428.27 522.2L1551.51 520.61" stroke="rgba(135, 142, 157, 1)" stroke-width="1.5"></path><path d="M1428.27 522.2L1425.86 667.89" stroke="rgba(135, 142, 157, 1)" stroke-width="1.5"></path><path d="M1425.86 667.89L1425.86 667.89" stroke="rgba(135, 142, 157, 1)" stroke-width="1.5"></path><path d="M1425.86 667.89L1591.73 700.69" stroke="rgba(135, 142, 157, 1)" stroke-width="1.5"></path><path d="M1425.86 667.89L1298.44 522.46" stroke="rgba(135, 142, 157, 1)" stroke-width="1.5"></path><path d="M1425.86 667.89L1551.51 520.61" stroke="rgba(135, 142, 157, 1)" stroke-width="1.5"></path><path d="M1425.86 667.89L1151.84 644.68" stroke="rgba(135, 142, 157, 1)" stroke-width="1.5"></path><path d="M1554.48 -78.42L1554.48 -78.42" stroke="rgba(135, 142, 157, 1)" stroke-width="1.5"></path><path d="M1554.48 -78.42L1574.75 58.71" stroke="rgba(135, 142, 157, 1)" stroke-width="1.5"></path><path d="M1554.48 -78.42L1399.2 87.52" stroke="rgba(135, 142, 157, 1)" stroke-width="1.5"></path><path d="M1554.48 -78.42L1308.53 72.8" stroke="rgba(135, 142, 157, 1)" stroke-width="1.5"></path><path d="M1554.48 -78.42L1237.95 -81.94" stroke="rgba(135, 142, 157, 1)" stroke-width="1.5"></path><path d="M1574.75 58.71L1574.75 58.71" stroke="rgba(135, 142, 157, 1)" stroke-width="1.5"></path><path d="M1539.91 238.66L1539.91 238.66" stroke="rgba(135, 142, 157, 1)" stroke-width="1.5"></path><path d="M1539.91 238.66L1583.93 359.3" stroke="rgba(135, 142, 157, 1)" stroke-width="1.5"></path><path d="M1583.93 359.3L1583.93 359.3" stroke="rgba(135, 142, 157, 1)" stroke-width="1.5"></path><path d="M1583.93 359.3L1551.51 520.61" stroke="rgba(135, 142, 157, 1)" stroke-width="1.5"></path><path d="M1583.93 359.3L1393.72 361.28" stroke="rgba(135, 142, 157, 1)" stroke-width="1.5"></path><path d="M1583.93 359.3L1428.27 522.2" stroke="rgba(135, 142, 157, 1)" stroke-width="1.5"></path><path d="M1583.93 359.3L1574.75 58.71" stroke="rgba(135, 142, 157, 1)" stroke-width="1.5"></path><path d="M1551.51 520.61L1551.51 520.61" stroke="rgba(135, 142, 157, 1)" stroke-width="1.5"></path><path d="M1551.51 520.61L1591.73 700.69" stroke="rgba(135, 142, 157, 1)" stroke-width="1.5"></path><path d="M1551.51 520.61L1393.72 361.28" stroke="rgba(135, 142, 157, 1)" stroke-width="1.5"></path><path d="M1551.51 520.61L1298.44 522.46" stroke="rgba(135, 142, 157, 1)" stroke-width="1.5"></path><path d="M1591.73 700.69L1591.73 700.69" stroke="rgba(135, 142, 157, 1)" stroke-width="1.5"></path><path d="M1591.73 700.69L1428.27 522.2" stroke="rgba(135, 142, 157, 1)" stroke-width="1.5"></path><path d="M1591.73 700.69L1257.94 666.99" stroke="rgba(135, 142, 157, 1)" stroke-width="1.5"></path><path d="M1591.73 700.69L1583.93 359.3" stroke="rgba(135, 142, 157, 1)" stroke-width="1.5"></path><circle r="5" cx="-50.28" cy="395.56" fill="rgba(135, 142, 157, 1)"></circle><circle r="5" cx="-70.8" cy="501.21" fill="rgba(135, 142, 157, 1)"></circle><circle r="5" cx="-100.34" cy="641.23" fill="rgba(135, 142, 157, 1)"></circle><circle r="5" cx="94.05" cy="354.63" fill="rgba(135, 142, 157, 1)"></circle><circle r="5" cx="82.51" cy="556.5" fill="rgba(135, 142, 157, 1)"></circle><circle r="5" cx="94.11" cy="698.34" fill="rgba(135, 142, 157, 1)"></circle><circle r="5" cx="214.98" cy="347.38" fill="rgba(135, 142, 157, 1)"></circle><circle r="5" cx="206.97" cy="536.54" fill="rgba(135, 142, 157, 1)"></circle><circle r="5" cx="249.26" cy="703.78" fill="rgba(135, 142, 157, 1)"></circle><circle r="5" cx="371.19" cy="409.94" fill="rgba(135, 142, 157, 1)"></circle><circle r="5" cx="342.08" cy="512.39" fill="rgba(135, 142, 157, 1)"></circle><circle r="5" cx="338.85" cy="650.2" fill="rgba(135, 142, 157, 1)"></circle><circle r="5" cx="514.5" cy="376.06" fill="rgba(135, 142, 157, 1)"></circle><circle r="5" cx="518.76" cy="533.93" fill="rgba(135, 142, 157, 1)"></circle><circle r="5" cx="508.31" cy="710.68" fill="rgba(135, 142, 157, 1)"></circle><circle r="5" cx="705.05" cy="362.14" fill="rgba(135, 142, 157, 1)"></circle><circle r="5" cx="696.76" cy="533.68" fill="rgba(135, 142, 157, 1)"></circle><circle r="5" cx="701.17" cy="666.62" fill="rgba(135, 142, 157, 1)"></circle><circle r="5" cx="801.17" cy="196.76" fill="rgba(135, 142, 157, 1)"></circle><circle r="5" cx="804.51" cy="354.81" fill="rgba(135, 142, 157, 1)"></circle><circle r="5" cx="861.74" cy="547.22" fill="rgba(135, 142, 157, 1)"></circle><circle r="5" cx="799.6" cy="682.71" fill="rgba(135, 142, 157, 1)"></circle><circle r="5" cx="963.74" cy="108.08" fill="rgba(135, 142, 157, 1)"></circle><circle r="5" cx="948.13" cy="226.3" fill="rgba(135, 142, 157, 1)"></circle><circle r="5" cx="941.37" cy="369.41" fill="rgba(135, 142, 157, 1)"></circle><circle r="5" cx="964.36" cy="528.94" fill="rgba(135, 142, 157, 1)"></circle><circle r="5" cx="944.81" cy="680.82" fill="rgba(135, 142, 157, 1)"></circle><circle r="5" cx="1146.38" cy="-65.65" fill="rgba(135, 142, 157, 1)"></circle><circle r="5" cx="1144.69" cy="108.96" fill="rgba(135, 142, 157, 1)"></circle><circle r="5" cx="1137.5" cy="222.72" fill="rgba(135, 142, 157, 1)"></circle><circle r="5" cx="1137" cy="346.09" fill="rgba(135, 142, 157, 1)"></circle><circle r="5" cx="1151.54" cy="500.74" fill="rgba(135, 142, 157, 1)"></circle><circle r="5" cx="1151.84" cy="644.68" fill="rgba(135, 142, 157, 1)"></circle><circle r="5" cx="1237.95" cy="-81.94" fill="rgba(135, 142, 157, 1)"></circle><circle r="5" cx="1308.53" cy="72.8" fill="rgba(135, 142, 157, 1)"></circle><circle r="5" cx="1244.39" cy="232.31" fill="rgba(135, 142, 157, 1)"></circle><circle r="5" cx="1238.27" cy="365.12" fill="rgba(135, 142, 157, 1)"></circle><circle r="5" cx="1298.44" cy="522.46" fill="rgba(135, 142, 157, 1)"></circle><circle r="5" cx="1257.94" cy="666.99" fill="rgba(135, 142, 157, 1)"></circle><circle r="5" cx="1458.83" cy="-55.7" fill="rgba(135, 142, 157, 1)"></circle><circle r="5" cx="1399.2" cy="87.52" fill="rgba(135, 142, 157, 1)"></circle><circle r="5" cx="1443.33" cy="256.55" fill="rgba(135, 142, 157, 1)"></circle><circle r="5" cx="1393.72" cy="361.28" fill="rgba(135, 142, 157, 1)"></circle><circle r="5" cx="1428.27" cy="522.2" fill="rgba(135, 142, 157, 1)"></circle><circle r="5" cx="1425.86" cy="667.89" fill="rgba(135, 142, 157, 1)"></circle><circle r="5" cx="1554.48" cy="-78.42" fill="rgba(135, 142, 157, 1)"></circle><circle r="5" cx="1574.75" cy="58.71" fill="rgba(135, 142, 157, 1)"></circle><circle r="5" cx="1539.91" cy="238.66" fill="rgba(135, 142, 157, 1)"></circle><circle r="5" cx="1583.93" cy="359.3" fill="rgba(135, 142, 157, 1)"></circle><circle r="5" cx="1551.51" cy="520.61" fill="rgba(135, 142, 157, 1)"></circle><circle r="5" cx="1591.73" cy="700.69" fill="rgba(135, 142, 157, 1)"></circle><path d="M82.37 514.73L82.37 514.73" stroke="hsl(228, 14.7%, 17.3%)" stroke-width="1.5"></path><path d="M82.37 514.73L222.78 529.08" stroke="hsl(228, 14.7%, 17.3%)" stroke-width="1.5"></path><path d="M82.37 514.73L-64.88 495.5" stroke="hsl(228, 14.7%, 17.3%)" stroke-width="1.5"></path><path d="M82.37 514.73L107.07 677.87" stroke="hsl(228, 14.7%, 17.3%)" stroke-width="1.5"></path><path d="M82.37 514.73L209.15 686.4" stroke="hsl(228, 14.7%, 17.3%)" stroke-width="1.5"></path><path d="M82.37 514.73L-74.26 705.66" stroke="hsl(228, 14.7%, 17.3%)" stroke-width="1.5"></path><path d="M642.05 533.49L642.05 533.49" stroke="hsl(228, 14.7%, 17.3%)" stroke-width="1.5"></path><path d="M642.05 533.49L642.83 697.29" stroke="hsl(228, 14.7%, 17.3%)" stroke-width="1.5"></path><path d="M642.05 533.49L845.6 513.16" stroke="hsl(228, 14.7%, 17.3%)" stroke-width="1.5"></path><path d="M642.05 533.49L808.18 680.16" stroke="hsl(228, 14.7%, 17.3%)" stroke-width="1.5"></path><path d="M978.48 699.51L978.48 699.51" stroke="hsl(228, 14.7%, 17.3%)" stroke-width="1.5"></path><path d="M978.48 699.51L808.18 680.16" stroke="hsl(228, 14.7%, 17.3%)" stroke-width="1.5"></path><path d="M978.48 699.51L1152.87 674.1" stroke="hsl(228, 14.7%, 17.3%)" stroke-width="1.5"></path><path d="M1108.52 241.63L1108.52 241.63" stroke="hsl(228, 14.7%, 17.3%)" stroke-width="1.5"></path><path d="M1108.52 241.63L1003.76 220.43" stroke="hsl(228, 14.7%, 17.3%)" stroke-width="1.5"></path><path d="M1108.52 241.63L1141.69 361.05" stroke="hsl(228, 14.7%, 17.3%)" stroke-width="1.5"></path><path d="M1152.87 674.1L1152.87 674.1" stroke="hsl(228, 14.7%, 17.3%)" stroke-width="1.5"></path><path d="M1152.87 674.1L1251.51 708.49" stroke="hsl(228, 14.7%, 17.3%)" stroke-width="1.5"></path><path d="M1152.87 674.1L1098.49 539.24" stroke="hsl(228, 14.7%, 17.3%)" stroke-width="1.5"></path><path d="M1152.87 674.1L1406.21 642.78" stroke="hsl(228, 14.7%, 17.3%)" stroke-width="1.5"></path><path d="M1152.87 674.1L1141.69 361.05" stroke="hsl(228, 14.7%, 17.3%)" stroke-width="1.5"></path><path d="M1152.87 674.1L1007.63 391.89" stroke="hsl(228, 14.7%, 17.3%)" stroke-width="1.5"></path><path d="M1268.11 102.71L1268.11 102.71" stroke="hsl(228, 14.7%, 17.3%)" stroke-width="1.5"></path><path d="M1268.11 102.71L1246.51 229.21" stroke="hsl(228, 14.7%, 17.3%)" stroke-width="1.5"></path><path d="M1268.11 102.71L1151.08 37.58" stroke="hsl(228, 14.7%, 17.3%)" stroke-width="1.5"></path><path d="M1537.94 99.85L1537.94 99.85" stroke="hsl(228, 14.7%, 17.3%)" stroke-width="1.5"></path><path d="M1537.94 99.85L1538.54 206.71" stroke="hsl(228, 14.7%, 17.3%)" stroke-width="1.5"></path><path d="M1537.94 99.85L1437.86 211.53" stroke="hsl(228, 14.7%, 17.3%)" stroke-width="1.5"></path><path d="M1537.94 99.85L1610.4 -49.66" stroke="hsl(228, 14.7%, 17.3%)" stroke-width="1.5"></path><path d="M1537.94 99.85L1419.62 -39.16" stroke="hsl(228, 14.7%, 17.3%)" stroke-width="1.5"></path><path d="M1537.94 99.85L1268.11 102.71" stroke="hsl(228, 14.7%, 17.3%)" stroke-width="1.5"></path><path d="M1537.94 99.85L1417.3 364.84" stroke="hsl(228, 14.7%, 17.3%)" stroke-width="1.5"></path><path d="M-64.88 495.5L-64.88 495.5" stroke="hsl(228, 14.7%, 17.3%)" stroke-width="1.5"></path><path d="M-64.88 495.5L-74.26 705.66" stroke="hsl(228, 14.7%, 17.3%)" stroke-width="1.5"></path><path d="M-64.88 495.5L107.07 677.87" stroke="hsl(228, 14.7%, 17.3%)" stroke-width="1.5"></path><path d="M-64.88 495.5L222.78 529.08" stroke="hsl(228, 14.7%, 17.3%)" stroke-width="1.5"></path><path d="M-64.88 495.5L209.15 686.4" stroke="hsl(228, 14.7%, 17.3%)" stroke-width="1.5"></path><path d="M-74.26 705.66L-74.26 705.66" stroke="hsl(228, 14.7%, 17.3%)" stroke-width="1.5"></path><path d="M-74.26 705.66L107.07 677.87" stroke="hsl(228, 14.7%, 17.3%)" stroke-width="1.5"></path><path d="M-74.26 705.66L209.15 686.4" stroke="hsl(228, 14.7%, 17.3%)" stroke-width="1.5"></path><path d="M107.07 677.87L107.07 677.87" stroke="hsl(228, 14.7%, 17.3%)" stroke-width="1.5"></path><path d="M107.07 677.87L209.15 686.4" stroke="hsl(228, 14.7%, 17.3%)" stroke-width="1.5"></path><path d="M222.78 529.08L222.78 529.08" stroke="hsl(228, 14.7%, 17.3%)" stroke-width="1.5"></path><path d="M222.78 529.08L209.15 686.4" stroke="hsl(228, 14.7%, 17.3%)" stroke-width="1.5"></path><path d="M222.78 529.08L351.22 638.88" stroke="hsl(228, 14.7%, 17.3%)" stroke-width="1.5"></path><path d="M222.78 529.08L107.07 677.87" stroke="hsl(228, 14.7%, 17.3%)" stroke-width="1.5"></path><path d="M222.78 529.08L-74.26 705.66" stroke="hsl(228, 14.7%, 17.3%)" stroke-width="1.5"></path><path d="M209.15 686.4L209.15 686.4" stroke="hsl(228, 14.7%, 17.3%)" stroke-width="1.5"></path><path d="M209.15 686.4L351.22 638.88" stroke="hsl(228, 14.7%, 17.3%)" stroke-width="1.5"></path><path d="M351.22 638.88L351.22 638.88" stroke="hsl(228, 14.7%, 17.3%)" stroke-width="1.5"></path><path d="M351.22 638.88L107.07 677.87" stroke="hsl(228, 14.7%, 17.3%)" stroke-width="1.5"></path><path d="M351.22 638.88L82.37 514.73" stroke="hsl(228, 14.7%, 17.3%)" stroke-width="1.5"></path><path d="M351.22 638.88L642.83 697.29" stroke="hsl(228, 14.7%, 17.3%)" stroke-width="1.5"></path><path d="M351.22 638.88L642.05 533.49" stroke="hsl(228, 14.7%, 17.3%)" stroke-width="1.5"></path><path d="M642.83 697.29L642.83 697.29" stroke="hsl(228, 14.7%, 17.3%)" stroke-width="1.5"></path><path d="M642.83 697.29L808.18 680.16" stroke="hsl(228, 14.7%, 17.3%)" stroke-width="1.5"></path><path d="M642.83 697.29L845.6 513.16" stroke="hsl(228, 14.7%, 17.3%)" stroke-width="1.5"></path><path d="M828.99 409.35L828.99 409.35" stroke="hsl(228, 14.7%, 17.3%)" stroke-width="1.5"></path><path d="M828.99 409.35L845.6 513.16" stroke="hsl(228, 14.7%, 17.3%)" stroke-width="1.5"></path><path d="M828.99 409.35L1007.63 391.89" stroke="hsl(228, 14.7%, 17.3%)" stroke-width="1.5"></path><path d="M828.99 409.35L642.05 533.49" stroke="hsl(228, 14.7%, 17.3%)" stroke-width="1.5"></path><path d="M828.99 409.35L1003.76 220.43" stroke="hsl(228, 14.7%, 17.3%)" stroke-width="1.5"></path><path d="M845.6 513.16L845.6 513.16" stroke="hsl(228, 14.7%, 17.3%)" stroke-width="1.5"></path><path d="M808.18 680.16L808.18 680.16" stroke="hsl(228, 14.7%, 17.3%)" stroke-width="1.5"></path><path d="M808.18 680.16L845.6 513.16" stroke="hsl(228, 14.7%, 17.3%)" stroke-width="1.5"></path><path d="M808.18 680.16L828.99 409.35" stroke="hsl(228, 14.7%, 17.3%)" stroke-width="1.5"></path><path d="M808.18 680.16L1098.49 539.24" stroke="hsl(228, 14.7%, 17.3%)" stroke-width="1.5"></path><path d="M1003.76 220.43L1003.76 220.43" stroke="hsl(228, 14.7%, 17.3%)" stroke-width="1.5"></path><path d="M1003.76 220.43L1007.63 391.89" stroke="hsl(228, 14.7%, 17.3%)" stroke-width="1.5"></path><path d="M1007.63 391.89L1007.63 391.89" stroke="hsl(228, 14.7%, 17.3%)" stroke-width="1.5"></path><path d="M1007.63 391.89L1141.69 361.05" stroke="hsl(228, 14.7%, 17.3%)" stroke-width="1.5"></path><path d="M1151.08 37.58L1151.08 37.58" stroke="hsl(228, 14.7%, 17.3%)" stroke-width="1.5"></path><path d="M1151.08 37.58L1258.12 -44.99" stroke="hsl(228, 14.7%, 17.3%)" stroke-width="1.5"></path><path d="M1151.08 37.58L1108.52 241.63" stroke="hsl(228, 14.7%, 17.3%)" stroke-width="1.5"></path><path d="M1151.08 37.58L1246.51 229.21" stroke="hsl(228, 14.7%, 17.3%)" stroke-width="1.5"></path><path d="M1151.08 37.58L1003.76 220.43" stroke="hsl(228, 14.7%, 17.3%)" stroke-width="1.5"></path><path d="M1151.08 37.58L1419.62 -39.16" stroke="hsl(228, 14.7%, 17.3%)" stroke-width="1.5"></path><path d="M1141.69 361.05L1141.69 361.05" stroke="hsl(228, 14.7%, 17.3%)" stroke-width="1.5"></path><path d="M1141.69 361.05L1246.51 229.21" stroke="hsl(228, 14.7%, 17.3%)" stroke-width="1.5"></path><path d="M1141.69 361.05L1098.49 539.24" stroke="hsl(228, 14.7%, 17.3%)" stroke-width="1.5"></path><path d="M1141.69 361.05L1003.76 220.43" stroke="hsl(228, 14.7%, 17.3%)" stroke-width="1.5"></path><path d="M1141.69 361.05L1417.3 364.84" stroke="hsl(228, 14.7%, 17.3%)" stroke-width="1.5"></path><path d="M1098.49 539.24L1098.49 539.24" stroke="hsl(228, 14.7%, 17.3%)" stroke-width="1.5"></path><path d="M1098.49 539.24L1007.63 391.89" stroke="hsl(228, 14.7%, 17.3%)" stroke-width="1.5"></path><path d="M1258.12 -44.99L1258.12 -44.99" stroke="hsl(228, 14.7%, 17.3%)" stroke-width="1.5"></path><path d="M1258.12 -44.99L1268.11 102.71" stroke="hsl(228, 14.7%, 17.3%)" stroke-width="1.5"></path><path d="M1258.12 -44.99L1419.62 -39.16" stroke="hsl(228, 14.7%, 17.3%)" stroke-width="1.5"></path><path d="M1258.12 -44.99L1246.51 229.21" stroke="hsl(228, 14.7%, 17.3%)" stroke-width="1.5"></path><path d="M1258.12 -44.99L1437.86 211.53" stroke="hsl(228, 14.7%, 17.3%)" stroke-width="1.5"></path><path d="M1258.12 -44.99L1537.94 99.85" stroke="hsl(228, 14.7%, 17.3%)" stroke-width="1.5"></path><path d="M1246.51 229.21L1246.51 229.21" stroke="hsl(228, 14.7%, 17.3%)" stroke-width="1.5"></path><path d="M1246.51 229.21L1108.52 241.63" stroke="hsl(228, 14.7%, 17.3%)" stroke-width="1.5"></path><path d="M1251.51 708.49L1251.51 708.49" stroke="hsl(228, 14.7%, 17.3%)" stroke-width="1.5"></path><path d="M1251.51 708.49L1406.21 642.78" stroke="hsl(228, 14.7%, 17.3%)" stroke-width="1.5"></path><path d="M1251.51 708.49L1098.49 539.24" stroke="hsl(228, 14.7%, 17.3%)" stroke-width="1.5"></path><path d="M1419.62 -39.16L1419.62 -39.16" stroke="hsl(228, 14.7%, 17.3%)" stroke-width="1.5"></path><path d="M1419.62 -39.16L1610.4 -49.66" stroke="hsl(228, 14.7%, 17.3%)" stroke-width="1.5"></path><path d="M1419.62 -39.16L1268.11 102.71" stroke="hsl(228, 14.7%, 17.3%)" stroke-width="1.5"></path><path d="M1419.62 -39.16L1437.86 211.53" stroke="hsl(228, 14.7%, 17.3%)" stroke-width="1.5"></path><path d="M1437.86 211.53L1437.86 211.53" stroke="hsl(228, 14.7%, 17.3%)" stroke-width="1.5"></path><path d="M1437.86 211.53L1538.54 206.71" stroke="hsl(228, 14.7%, 17.3%)" stroke-width="1.5"></path><path d="M1437.86 211.53L1417.3 364.84" stroke="hsl(228, 14.7%, 17.3%)" stroke-width="1.5"></path><path d="M1437.86 211.53L1246.51 229.21" stroke="hsl(228, 14.7%, 17.3%)" stroke-width="1.5"></path><path d="M1437.86 211.53L1268.11 102.71" stroke="hsl(228, 14.7%, 17.3%)" stroke-width="1.5"></path><path d="M1437.86 211.53L1542.94 396.43" stroke="hsl(228, 14.7%, 17.3%)" stroke-width="1.5"></path><path d="M1417.3 364.84L1417.3 364.84" stroke="hsl(228, 14.7%, 17.3%)" stroke-width="1.5"></path><path d="M1417.3 364.84L1542.94 396.43" stroke="hsl(228, 14.7%, 17.3%)" stroke-width="1.5"></path><path d="M1417.3 364.84L1444.28 545.65" stroke="hsl(228, 14.7%, 17.3%)" stroke-width="1.5"></path><path d="M1417.3 364.84L1538.54 206.71" stroke="hsl(228, 14.7%, 17.3%)" stroke-width="1.5"></path><path d="M1444.28 545.65L1444.28 545.65" stroke="hsl(228, 14.7%, 17.3%)" stroke-width="1.5"></path><path d="M1444.28 545.65L1406.21 642.78" stroke="hsl(228, 14.7%, 17.3%)" stroke-width="1.5"></path><path d="M1444.28 545.65L1588.02 552.67" stroke="hsl(228, 14.7%, 17.3%)" stroke-width="1.5"></path><path d="M1444.28 545.65L1542.94 396.43" stroke="hsl(228, 14.7%, 17.3%)" stroke-width="1.5"></path><path d="M1444.28 545.65L1594.53 691.69" stroke="hsl(228, 14.7%, 17.3%)" stroke-width="1.5"></path><path d="M1444.28 545.65L1251.51 708.49" stroke="hsl(228, 14.7%, 17.3%)" stroke-width="1.5"></path><path d="M1406.21 642.78L1406.21 642.78" stroke="hsl(228, 14.7%, 17.3%)" stroke-width="1.5"></path><path d="M1406.21 642.78L1594.53 691.69" stroke="hsl(228, 14.7%, 17.3%)" stroke-width="1.5"></path><path d="M1406.21 642.78L1588.02 552.67" stroke="hsl(228, 14.7%, 17.3%)" stroke-width="1.5"></path><path d="M1610.4 -49.66L1610.4 -49.66" stroke="hsl(228, 14.7%, 17.3%)" stroke-width="1.5"></path><path d="M1538.54 206.71L1538.54 206.71" stroke="hsl(228, 14.7%, 17.3%)" stroke-width="1.5"></path><path d="M1538.54 206.71L1542.94 396.43" stroke="hsl(228, 14.7%, 17.3%)" stroke-width="1.5"></path><path d="M1542.94 396.43L1542.94 396.43" stroke="hsl(228, 14.7%, 17.3%)" stroke-width="1.5"></path><path d="M1542.94 396.43L1588.02 552.67" stroke="hsl(228, 14.7%, 17.3%)" stroke-width="1.5"></path><path d="M1588.02 552.67L1588.02 552.67" stroke="hsl(228, 14.7%, 17.3%)" stroke-width="1.5"></path><path d="M1588.02 552.67L1594.53 691.69" stroke="hsl(228, 14.7%, 17.3%)" stroke-width="1.5"></path><path d="M1594.53 691.69L1594.53 691.69" stroke="hsl(228, 14.7%, 17.3%)" stroke-width="1.5"></path><circle r="25" cx="82.37" cy="514.73" fill="url(&quot;#SvgjsRadialGradient1171&quot;)"></circle><circle r="25" cx="642.05" cy="533.49" fill="url(&quot;#SvgjsRadialGradient1171&quot;)"></circle><circle r="25" cx="978.48" cy="699.51" fill="url(&quot;#SvgjsRadialGradient1171&quot;)"></circle><circle r="25" cx="1108.52" cy="241.63" fill="url(&quot;#SvgjsRadialGradient1171&quot;)"></circle><circle r="25" cx="1152.87" cy="674.1" fill="url(&quot;#SvgjsRadialGradient1171&quot;)"></circle><circle r="25" cx="1268.11" cy="102.71" fill="url(&quot;#SvgjsRadialGradient1171&quot;)"></circle><circle r="25" cx="1537.94" cy="99.85" fill="url(&quot;#SvgjsRadialGradient1171&quot;)"></circle><circle r="5" cx="-64.88" cy="495.5" fill="#8e8f93"></circle><circle r="5" cx="-74.26" cy="705.66" fill="#8e8f93"></circle><circle r="5" cx="107.07" cy="677.87" fill="#8e8f93"></circle><circle r="5" cx="222.78" cy="529.08" fill="#8e8f93"></circle><circle r="5" cx="209.15" cy="686.4" fill="#8e8f93"></circle><circle r="5" cx="351.22" cy="638.88" fill="#8e8f93"></circle><circle r="5" cx="642.83" cy="697.29" fill="#8e8f93"></circle><circle r="5" cx="828.99" cy="409.35" fill="#8e8f93"></circle><circle r="5" cx="845.6" cy="513.16" fill="#8e8f93"></circle><circle r="5" cx="808.18" cy="680.16" fill="#8e8f93"></circle><circle r="5" cx="1003.76" cy="220.43" fill="#8e8f93"></circle><circle r="5" cx="1007.63" cy="391.89" fill="#8e8f93"></circle><circle r="5" cx="1151.08" cy="37.58" fill="#8e8f93"></circle><circle r="5" cx="1141.69" cy="361.05" fill="#8e8f93"></circle><circle r="5" cx="1098.49" cy="539.24" fill="#8e8f93"></circle><circle r="5" cx="1258.12" cy="-44.99" fill="#8e8f93"></circle><circle r="5" cx="1246.51" cy="229.21" fill="#8e8f93"></circle><circle r="5" cx="1251.51" cy="708.49" fill="#8e8f93"></circle><circle r="5" cx="1419.62" cy="-39.16" fill="#8e8f93"></circle><circle r="5" cx="1437.86" cy="211.53" fill="#8e8f93"></circle><circle r="5" cx="1417.3" cy="364.84" fill="#8e8f93"></circle><circle r="5" cx="1444.28" cy="545.65" fill="#8e8f93"></circle><circle r="5" cx="1406.21" cy="642.78" fill="#8e8f93"></circle><circle r="5" cx="1610.4" cy="-49.66" fill="#8e8f93"></circle><circle r="5" cx="1538.54" cy="206.71" fill="#8e8f93"></circle><circle r="5" cx="1542.94" cy="396.43" fill="#8e8f93"></circle><circle r="5" cx="1588.02" cy="552.67" fill="#8e8f93"></circle><circle r="5" cx="1594.53" cy="691.69" fill="#8e8f93"></circle></g><defs><mask id="SvgjsMask1169"><rect width="1440" height="560" fill="#ffffff"></rect></mask><linearGradient x1="15.28%" y1="139.29%" x2="84.72%" y2="-39.29%" gradientUnits="userSpaceOnUse" id="SvgjsLinearGradient1170"><stop stop-color="#0e2a47" offset="0"></stop><stop stop-color="rgba(32, 39, 48, 1)" offset="1"></stop></linearGradient><radialGradient id="SvgjsRadialGradient1171"><stop stop-color="#ffffff" offset="0.1"></stop><stop stop-color="rgba(29, 31, 39, 1)" offset="0.2"></stop><stop stop-color="rgba(29, 31, 39, 0)" offset="1"></stop></radialGradient></defs></svg>