<svg xmlns="http://www.w3.org/2000/svg" version="1.1" xmlns:xlink="http://www.w3.org/1999/xlink" xmlns:svgjs="http://svgjs.dev/svgjs" width="1440" height="560" preserveAspectRatio="none" viewBox="0 0 1440 560"><g mask="url(&quot;#SvgjsMask1003&quot;)" fill="none"><path d="M 0,84 C 57.6,96.6 172.8,163 288,147 C 403.2,131 460.8,-20.2 576,4 C 691.2,28.2 748.8,263.2 864,268 C 979.2,272.8 1036.8,35.2 1152,28 C 1267.2,20.8 1382.4,191.2 1440,232L1440 560L0 560z" fill="rgba(114, 121, 128, 1)"></path><path d="M 0,526 C 96,493.2 288,372.8 480,362 C 672,351.2 768,472.4 960,472 C 1152,471.6 1344,382.4 1440,360L1440 560L0 560z" fill="rgba(17, 18, 20, 1)"></path></g><defs><mask id="SvgjsMask1003"><rect width="1440" height="560" fill="#ffffff"></rect></mask></defs></svg>